<svg id="Layer_1" data-name="Layer 1" xmlns="http://www.w3.org/2000/svg" viewBox="0 0 451 144"><defs><style>.cls-1{fill:#fff;}.cls-2{fill:#0075c9;}.cls-3{fill:#231f20;}</style></defs><title>ASI-ware Horiz</title><path class="cls-1" d="M400.2,79.07c-10.84,2.75-19.33,4.18-19.93,4.22"/><path class="cls-2" d="M248.86,116.43a3,3,0,0,0-.45-.14c-.17,0-.36-.08-.57-.11l-.61-.07-.57,0a10.45,10.45,0,0,0-2.22.22,17.43,17.43,0,0,0-1.9.5L240,127.1h2.53l2.1-8.71a4.43,4.43,0,0,1,.67-.13,5.1,5.1,0,0,1,.76-.05,6.31,6.31,0,0,1,1.13.08,4.84,4.84,0,0,1,.91.23Zm-12.13,2a1.08,1.08,0,0,1,.3.75,1.65,1.65,0,0,1-1.14,1.54,10.06,10.06,0,0,1-3.65.6,4.61,4.61,0,0,1,.47-1.27,4.67,4.67,0,0,1,.76-1,3.45,3.45,0,0,1,1-.68,2.86,2.86,0,0,1,1.19-.25,1.4,1.4,0,0,1,1.06.33m-6.9,6.41a3.59,3.59,0,0,0,.79,1.33,3.54,3.54,0,0,0,1.37.91,5.5,5.5,0,0,0,2,.33,8.79,8.79,0,0,0,2.09-.23,8.3,8.3,0,0,0,1.42-.45l-.21-2a7.54,7.54,0,0,1-2.84.57c-1.61,0-2.41-.62-2.41-1.88v-.2a.19.19,0,0,1,0-.08c.89,0,1.78-.1,2.65-.21a8.53,8.53,0,0,0,2.34-.62,4.25,4.25,0,0,0,1.69-1.26,3.25,3.25,0,0,0,.65-2.1,2.71,2.71,0,0,0-.88-2.07,3.56,3.56,0,0,0-2.47-.8,5.9,5.9,0,0,0-2.68.6,6.28,6.28,0,0,0-2,1.6,7,7,0,0,0-1.3,2.29,8,8,0,0,0-.45,2.67,5,5,0,0,0,.25,1.62m-12.54,2.28h2.55l2.1-8.73a5.84,5.84,0,0,1,1.55-.18,1.72,1.72,0,0,1,1.43.47,1.82,1.82,0,0,1,.35,1.2,6.23,6.23,0,0,1-.13.91l-.21.92-1.29,5.41h2.53l1.38-5.68c.07-.34.13-.67.18-1a5.94,5.94,0,0,0,.07-.91,3.44,3.44,0,0,0-.9-2.5,3.78,3.78,0,0,0-2.83-.93,11.52,11.52,0,0,0-2.35.22c-.72.14-1.36.3-1.92.46Zm-7.49-4.77a11.17,11.17,0,0,0-.22,1.13,7.19,7.19,0,0,0-.07,1,2.82,2.82,0,0,0,.77,2.11,3.54,3.54,0,0,0,2.58.78,6.72,6.72,0,0,0,1.71-.19,8,8,0,0,0,1.22-.39l-.19-2a9,9,0,0,1-.92.31,4.4,4.4,0,0,1-1.09.14,2.34,2.34,0,0,1-.83-.11,1.14,1.14,0,0,1-.46-.29,1,1,0,0,1-.21-.41,2.63,2.63,0,0,1-.05-.49,3.53,3.53,0,0,1,0-.54c0-.2.07-.45.14-.76l1.05-4.27h3.58l.51-2.06h-3.59l.8-3.26-2.64.41Zm-.42-5.9a2.69,2.69,0,0,0-.45-.14c-.17,0-.36-.08-.57-.11l-.61-.07-.57,0a10.45,10.45,0,0,0-2.22.22,18.06,18.06,0,0,0-1.9.5l-2.51,10.3h2.53l2.1-8.71a4.34,4.34,0,0,1,.68-.13,4.89,4.89,0,0,1,.75-.05,6.43,6.43,0,0,1,1.14.08,4.94,4.94,0,0,1,.9.23ZM196,122.29a8,8,0,0,0-.2.95c-.05.32-.08.65-.1,1a3.49,3.49,0,0,1-.95.75,2.39,2.39,0,0,1-1.18.28,1.8,1.8,0,0,1-.86-.18,1.42,1.42,0,0,1-.53-.5,2,2,0,0,1-.29-.72,4.91,4.91,0,0,1-.08-.89,5.22,5.22,0,0,1,.31-1.81,5,5,0,0,1,.89-1.54,4.38,4.38,0,0,1,1.38-1.07,3.77,3.77,0,0,1,1.73-.41,4.19,4.19,0,0,1,.91.09Zm3.91-5.55a6.69,6.69,0,0,0-1.66-.5,10.31,10.31,0,0,0-1.65-.14,7.57,7.57,0,0,0-2.93.55,7.12,7.12,0,0,0-2.31,1.49,6.83,6.83,0,0,0-1.52,2.25,7.29,7.29,0,0,0-.54,2.81,6.21,6.21,0,0,0,.21,1.65,3.52,3.52,0,0,0,.65,1.33,2.93,2.93,0,0,0,1.13.89,4.11,4.11,0,0,0,1.69.32,4,4,0,0,0,1.73-.36,5.39,5.39,0,0,0,1.29-.82,5.36,5.36,0,0,0,.39,1.06l2.26-.33a6.39,6.39,0,0,1-.44-2.32,6.81,6.81,0,0,1,.07-1,6,6,0,0,1,.12-.74Zm-14.43-1.44a1.59,1.59,0,0,1,.78,1.5,2.73,2.73,0,0,1-.37,1.5,2.79,2.79,0,0,1-1,.93,4.79,4.79,0,0,1-1.44.48,9.4,9.4,0,0,1-1.69.15h-1.07l1.18-4.94.71-.06.75,0a4.24,4.24,0,0,1,2.15.46m-3.78-2.57a15.42,15.42,0,0,0-2,.28l-3.41,14.09H179l1.22-5.06h1.13a15.74,15.74,0,0,0,3.11-.29,7.22,7.22,0,0,0,2.43-1,4.85,4.85,0,0,0,1.6-1.71,5.18,5.18,0,0,0,.57-2.52,3.34,3.34,0,0,0-1.39-2.89,6.71,6.71,0,0,0-4-1c-.58,0-1.21,0-1.88.07m-15,9.56a8,8,0,0,0-.2.95c-.05.32-.08.65-.1,1a3.35,3.35,0,0,1-.95.75,2.37,2.37,0,0,1-1.18.28,1.8,1.8,0,0,1-.86-.18,1.5,1.5,0,0,1-.53-.5,2,2,0,0,1-.29-.72,4.91,4.91,0,0,1-.08-.89,5.22,5.22,0,0,1,.32-1.81,4.64,4.64,0,0,1,.89-1.54,4.34,4.34,0,0,1,1.37-1.07,3.78,3.78,0,0,1,1.74-.41,4.16,4.16,0,0,1,.9.09Zm3.91-5.55a6.69,6.69,0,0,0-1.66-.5,10.21,10.21,0,0,0-1.65-.14,7.52,7.52,0,0,0-2.92.55,7.06,7.06,0,0,0-2.32,1.49,7,7,0,0,0-1.52,2.25,7.29,7.29,0,0,0-.54,2.81,6.21,6.21,0,0,0,.21,1.65,3.84,3.84,0,0,0,.65,1.33,2.89,2.89,0,0,0,1.14.89,4.09,4.09,0,0,0,1.68.32,4,4,0,0,0,1.73-.36,5.39,5.39,0,0,0,1.29-.82,5.39,5.39,0,0,0,.4,1.06l2.26-.33a5.76,5.76,0,0,1-.34-1.15,6.45,6.45,0,0,1-.1-1.17,8.54,8.54,0,0,1,.06-1,4.26,4.26,0,0,1,.13-.74Zm-20.81,5.7c-.06.3-.13.61-.17.93s-.08.61-.1.9a3.73,3.73,0,0,1-1,.75,2.63,2.63,0,0,1-1.18.26,1.81,1.81,0,0,1-.85-.18,1.59,1.59,0,0,1-.56-.5,2.14,2.14,0,0,1-.3-.72,4.13,4.13,0,0,1-.09-.89,5.42,5.42,0,0,1,.3-1.79,4.77,4.77,0,0,1,.87-1.54,4.2,4.2,0,0,1,1.36-1.07,3.79,3.79,0,0,1,1.75-.4,4.57,4.57,0,0,1,1,.08ZM148.57,127a5.52,5.52,0,0,0,1.28-.82,5.15,5.15,0,0,0,.39,1.06l2.27-.33a6.26,6.26,0,0,1-.34-1.16,6,6,0,0,1-.1-1.11,9.4,9.4,0,0,1,.2-1.88l2.87-11.7-2.63.41-1.15,4.75a4.21,4.21,0,0,0-.65-.11l-.5,0a7.33,7.33,0,0,0-3,.59,6.71,6.71,0,0,0-3.63,3.84,7.39,7.39,0,0,0-.49,2.67,6.22,6.22,0,0,0,.2,1.65,3.57,3.57,0,0,0,.66,1.32,3.11,3.11,0,0,0,1.16.88,4.19,4.19,0,0,0,1.7.32,4,4,0,0,0,1.76-.36m-17.73.07h2.55l2.1-8.73a5.81,5.81,0,0,1,1.54-.18,1.73,1.73,0,0,1,1.44.47,1.82,1.82,0,0,1,.34,1.2,5.06,5.06,0,0,1-.12.91l-.21.92-1.29,5.41h2.52l1.39-5.68c.07-.34.13-.67.17-1a6,6,0,0,0,.08-.91,3.44,3.44,0,0,0-.9-2.5,3.8,3.8,0,0,0-2.83-.93,11.52,11.52,0,0,0-2.35.22c-.72.14-1.36.3-1.92.46Zm-4.52-4.81a8,8,0,0,0-.2.95c-.05.32-.08.65-.1,1a3.49,3.49,0,0,1-1,.75,2.37,2.37,0,0,1-1.18.28,1.8,1.8,0,0,1-.86-.18,1.5,1.5,0,0,1-.53-.5,2,2,0,0,1-.29-.72,4.91,4.91,0,0,1-.08-.89,5.46,5.46,0,0,1,.31-1.81,4.84,4.84,0,0,1,.9-1.54,4.34,4.34,0,0,1,1.37-1.07,3.78,3.78,0,0,1,1.74-.41,4.16,4.16,0,0,1,.9.09Zm3.91-5.55a6.69,6.69,0,0,0-1.66-.5,10.21,10.21,0,0,0-1.65-.14,7.6,7.6,0,0,0-2.93.55,7.12,7.12,0,0,0-2.31,1.49,7,7,0,0,0-1.52,2.25,7.29,7.29,0,0,0-.54,2.81,6.21,6.21,0,0,0,.21,1.65,3.67,3.67,0,0,0,.65,1.33,2.89,2.89,0,0,0,1.14.89,4.09,4.09,0,0,0,1.68.32A4,4,0,0,0,125,127a5.39,5.39,0,0,0,1.29-.82,6.08,6.08,0,0,0,.39,1.06l2.27-.33a5.76,5.76,0,0,1-.34-1.15,6.45,6.45,0,0,1-.1-1.17,8.54,8.54,0,0,1,.06-1,4.26,4.26,0,0,1,.13-.74Zm-19.33,1.67a1.08,1.08,0,0,1,.3.75,1.65,1.65,0,0,1-1.14,1.54,10.06,10.06,0,0,1-3.65.6,4.61,4.61,0,0,1,.47-1.27,4.41,4.41,0,0,1,.77-1,3.28,3.28,0,0,1,1-.68,2.86,2.86,0,0,1,1.19-.25,1.4,1.4,0,0,1,1.06.33m-6.9,6.41a3.59,3.59,0,0,0,.79,1.33,3.54,3.54,0,0,0,1.37.91,5.5,5.5,0,0,0,2,.33,9.24,9.24,0,0,0,3.52-.68l-.21-2a7.62,7.62,0,0,1-2.85.57c-1.61,0-2.41-.62-2.41-1.88v-.2a.19.19,0,0,1,0-.08c.89,0,1.78-.1,2.65-.21a8.7,8.7,0,0,0,2.35-.62,4.29,4.29,0,0,0,1.68-1.26,3.25,3.25,0,0,0,.65-2.1,2.68,2.68,0,0,0-.88-2.07,3.56,3.56,0,0,0-2.47-.8,5.9,5.9,0,0,0-2.68.6,6.39,6.39,0,0,0-2,1.6,7,7,0,0,0-1.3,2.29,8,8,0,0,0-.45,2.67,5.29,5.29,0,0,0,.25,1.62m-.27-8.39a2.69,2.69,0,0,0-.45-.14c-.17,0-.36-.08-.57-.11l-.61-.07-.57,0a10.45,10.45,0,0,0-2.22.22,18.06,18.06,0,0,0-1.9.5L94.9,127.1h2.53l2.1-8.71a4.43,4.43,0,0,1,.67-.13,5.1,5.1,0,0,1,.76-.05,6.31,6.31,0,0,1,1.13.08,4.84,4.84,0,0,1,.91.23Zm-13.35,5.86a8,8,0,0,0-.2.95c-.05.32-.08.65-.1,1a3.49,3.49,0,0,1-1,.75,2.39,2.39,0,0,1-1.18.28,1.8,1.8,0,0,1-.86-.18,1.53,1.53,0,0,1-.54-.5,2.12,2.12,0,0,1-.28-.72,4.91,4.91,0,0,1-.08-.89,5.22,5.22,0,0,1,.31-1.81,5,5,0,0,1,.89-1.54,4.46,4.46,0,0,1,1.37-1.07,3.85,3.85,0,0,1,1.75-.41,4.16,4.16,0,0,1,.9.09Zm3.91-5.55a6.69,6.69,0,0,0-1.66-.5A10.31,10.31,0,0,0,91,116.1a7.57,7.57,0,0,0-2.93.55,7.12,7.12,0,0,0-2.31,1.49,6.83,6.83,0,0,0-1.52,2.25,7.29,7.29,0,0,0-.54,2.81,6.21,6.21,0,0,0,.21,1.65,3.82,3.82,0,0,0,.64,1.33,3,3,0,0,0,1.14.89,4.11,4.11,0,0,0,1.69.32,4,4,0,0,0,1.73-.36,5.39,5.39,0,0,0,1.29-.82,5.36,5.36,0,0,0,.39,1.06l2.26-.33a6.39,6.39,0,0,1-.44-2.32,6.81,6.81,0,0,1,.07-1,6,6,0,0,1,.12-.74Zm-19.15,6.94c.1,1.13.23,2.26.39,3.42H77.6a25.6,25.6,0,0,0,1.9-2.55c.61-.91,1.19-1.85,1.72-2.8s1-1.88,1.44-2.81.79-1.81,1.08-2.63H81.1c-.18.56-.41,1.19-.7,1.89s-.61,1.39-1,2.1-.71,1.4-1.09,2.07-.75,1.28-1.11,1.8c-.08-.67-.15-1.36-.2-2s-.09-1.38-.12-2.06-.06-1.32-.07-2,0-1.23,0-1.79H74.65c-.23.6-.49,1.24-.79,1.92s-.62,1.35-1,2-.72,1.35-1.1,2-.77,1.3-1.17,1.89c-.08-.59-.15-1.22-.2-1.9s-.09-1.36-.13-2-.06-1.38-.07-2,0-1.29,0-1.86H67.68c0,1.06.09,2.1.16,3.11s.17,2,.27,2.91.21,1.79.33,2.6.25,1.54.38,2.17H70.9c.31-.43.64-.91,1-1.45s.73-1.12,1.09-1.72.71-1.21,1.05-1.83.63-1.24.9-1.83c0,1.15.09,2.29.2,3.41m-16.39-1.35a9,9,0,0,0-.22,1.13,7.23,7.23,0,0,0-.08,1,2.83,2.83,0,0,0,.78,2.11,3.51,3.51,0,0,0,2.57.78,6.75,6.75,0,0,0,1.72-.19,7.52,7.52,0,0,0,1.21-.39l-.19-2a8.2,8.2,0,0,1-.92.31,4.34,4.34,0,0,1-1.09.14,2.32,2.32,0,0,1-.82-.11,1.14,1.14,0,0,1-.46-.29.81.81,0,0,1-.21-.41,2,2,0,0,1,0-.49,3.53,3.53,0,0,1,0-.54,6.72,6.72,0,0,1,.14-.76l1-4.27H65.8l.5-2.06H62.72l.8-3.26-2.64.41Zm-3.63-6.74a6,6,0,0,1,.33-1,2.42,2.42,0,0,1,.51-.76,2.24,2.24,0,0,1,.75-.48,2.85,2.85,0,0,1,1.07-.18,4.65,4.65,0,0,1,1.78.35l.92-2a6.88,6.88,0,0,0-4.61-.21,4.23,4.23,0,0,0-1.53.86,4.78,4.78,0,0,0-1.07,1.41,8.64,8.64,0,0,0-.68,1.88L50.1,125.86a14.38,14.38,0,0,1-.43,1.5,11.85,11.85,0,0,1-.52,1.24,10.35,10.35,0,0,1-.63,1.07c-.23.34-.48.67-.74,1L50,131a7.59,7.59,0,0,0,1.08-1.25,8,8,0,0,0,.75-1.35,11.8,11.8,0,0,0,.55-1.59c.16-.58.34-1.24.52-2l1.56-6.46H58.1l.5-2.06H54.94Zm-8.31,3.16a3,3,0,0,1,.4,1.64A6.49,6.49,0,0,1,47,122a5.73,5.73,0,0,1-.66,1.58,3.92,3.92,0,0,1-1.07,1.18,2.39,2.39,0,0,1-1.45.46,1.56,1.56,0,0,1-1.4-.59A2.91,2.91,0,0,1,42,123a6.58,6.58,0,0,1,.89-3.24A3.8,3.8,0,0,1,44,118.61a2.4,2.4,0,0,1,1.45-.47,1.55,1.55,0,0,1,1.4.61m-.53,8A6.17,6.17,0,0,0,48.23,125a7.42,7.42,0,0,0,1.13-2.33,9.14,9.14,0,0,0,.36-2.49,4.29,4.29,0,0,0-1-3,3.83,3.83,0,0,0-3-1.12,5.44,5.44,0,0,0-2.77.68A6.22,6.22,0,0,0,41,118.45a7.43,7.43,0,0,0-1.16,2.34,8.71,8.71,0,0,0-.37,2.47,4.29,4.29,0,0,0,1,3,3.82,3.82,0,0,0,3,1.14,5.54,5.54,0,0,0,2.79-.68M30.65,125.1a7.38,7.38,0,0,1-1-.26,5.86,5.86,0,0,1-.79-.34,4.66,4.66,0,0,1-.55-.33l-1.17,2a3.77,3.77,0,0,0,.64.37,7.14,7.14,0,0,0,1,.4,11.15,11.15,0,0,0,1.29.31,9.67,9.67,0,0,0,1.58.12,9.35,9.35,0,0,0,2.38-.29,5.66,5.66,0,0,0,1.89-.86,3.78,3.78,0,0,0,1.23-1.43,4.33,4.33,0,0,0,.44-2,3.43,3.43,0,0,0-.26-1.42,3.66,3.66,0,0,0-.7-1,5,5,0,0,0-1-.8c-.39-.24-.8-.47-1.23-.71l-.82-.44a3.58,3.58,0,0,1-.66-.43,1.75,1.75,0,0,1-.43-.55,1.67,1.67,0,0,1-.16-.78,1.74,1.74,0,0,1,.22-.9,1.78,1.78,0,0,1,.6-.62,3,3,0,0,1,.9-.35,4.83,4.83,0,0,1,1.08-.11,5.88,5.88,0,0,1,1.73.24,4,4,0,0,1,1.22.6l1.16-2a4.32,4.32,0,0,0-.63-.35,7.45,7.45,0,0,0-.92-.34c-.35-.1-.73-.19-1.12-.26a7.28,7.28,0,0,0-1.25-.1,8.32,8.32,0,0,0-2.46.33,5.33,5.33,0,0,0-1.78.91A3.79,3.79,0,0,0,30,115.08a4.17,4.17,0,0,0-.36,1.74,3.79,3.79,0,0,0,.22,1.37,3.27,3.27,0,0,0,.59,1,4.61,4.61,0,0,0,.87.77,8.32,8.32,0,0,0,1,.61l.95.5a6.25,6.25,0,0,1,.81.51,2.3,2.3,0,0,1,.56.61,1.53,1.53,0,0,1,.21.81,2,2,0,0,1-.27,1.07,2,2,0,0,1-.72.67,3.55,3.55,0,0,1-1,.35,6,6,0,0,1-1.12.1,5.66,5.66,0,0,1-1.11-.1"/><path class="cls-2" d="M368.09,77.87V34.11h11.23V81.44a36.87,36.87,0,0,0-11.16-3.56h-.07m-11.74-.19c-.93.06-1.83.12-2.55.14v-56H365V77.53a65.41,65.41,0,0,0-8.68.15m-16.84-1.76V49.05h11.23V77.69A53.56,53.56,0,0,1,341,76.38c-.49-.14-1-.3-1.45-.46M415.6,47.44a45.17,45.17,0,0,0-22-29.08V79.47c-4.9,1.12-8.9,1.89-11.23,2.31V14A45,45,0,0,0,332,36.47,23.48,23.48,0,0,0,300,58.32c0,.54,0,1.09.07,1.62a28.55,28.55,0,0,0-20.64,34.45c9.89-2.66,26.05-7.12,28.75-8.55s4.56-3.57,6.92-5.48a.72.72,0,0,0,.24-.14,16,16,0,0,1,8.17-3.55c8-1,11.46.13,14.8,1.26l.1,0c.64.22,1.28.43,1.94.63a65.45,65.45,0,0,0,12.49,1.53A35.59,35.59,0,0,0,356.5,80a50.66,50.66,0,0,1,11.28.17c3.61.6,15.36,3.06,14.75,9.47a7.78,7.78,0,0,1-2.81,5.55c-3.32,2.71-8.56,2.61-11.4,2.31-5.42-.58-18.16-.7-22.47-.53a28,28,0,0,0-3,.37c-3.51.53-9.4,1.42-13-.66a1.16,1.16,0,1,0-1.16,2,14.68,14.68,0,0,0,7.37,1.62,47.65,47.65,0,0,0,7.1-.67c1.16-.18,2.16-.33,2.7-.35,4.25-.16,16.81,0,22.13.52,3.2.34,9.15.43,13.12-2.81a10,10,0,0,0,3.64-7.13,7.22,7.22,0,0,0-2.05-5.8c3.36-.59,9.85-1.87,17.71-3.86v0c2.95-.76,6-1.6,9.15-2.53,14.23-4.25,20,.87,19,5.45s-17.55,8-23.21,9.72-16.13,6.74-22,8.3-12.38,5-17.31,7.36-10.81,1.27-14.67,1-19.2-1-25.46-.14-11.77,3.61-13.72,4.5c-.73.34-3.17,1.27-5.92,2.29l.73,0a28.58,28.58,0,0,0,9.3-1.56c10.46,5.76,24.83,9.32,40.69,9.32,15.16,0,29-3.25,39.28-8.57A35.32,35.32,0,1,0,415.6,47.44"/><path class="cls-3" d="M261.94,67.4a13.32,13.32,0,0,0-10.33-4.22,15,15,0,0,0-5.69,1.12,13.71,13.71,0,0,0-4.9,3.44,17.82,17.82,0,0,0-3.48,5.76,22.32,22.32,0,0,0-1.33,8.08,26.92,26.92,0,0,0,1,7.39,15,15,0,0,0,3.06,5.83,14.27,14.27,0,0,0,5.39,3.82,20.67,20.67,0,0,0,7.9,1.36,22.6,22.6,0,0,0,6.17-.75,18,18,0,0,0,3.58-1.3l-.82-3.81a24.67,24.67,0,0,1-3.07,1.16,19.39,19.39,0,0,1-5.72.68c-4.37,0-7.54-1.16-9.54-3.48s-3.07-5.63-3.21-10h24.74c.05-.32.08-.66.1-1s0-.73,0-1.09Q265.79,71.63,261.94,67.4ZM241.05,78.78a15.33,15.33,0,0,1,.92-4.43,12,12,0,0,1,2.18-3.71,10.83,10.83,0,0,1,3.27-2.56,9.34,9.34,0,0,1,4.26-1,8.37,8.37,0,0,1,6.95,3.07q2.46,3.06,2.59,8.58Z"/><path class="cls-3" d="M219.39,64.1a32.07,32.07,0,0,0-4.7,1.53v33.6h4.43V68.36a12.22,12.22,0,0,1,2.28-.69,21.05,21.05,0,0,1,4.6-.4,25.92,25.92,0,0,1,4.4.3,10.19,10.19,0,0,1,2.21.58l.89-3.81a12.71,12.71,0,0,0-2.7-.69,24.54,24.54,0,0,0-4.12-.34,29.32,29.32,0,0,0-7.29.79"/><path class="cls-3" d="M204.54,71a10.66,10.66,0,0,0-2.18-4.12,10.08,10.08,0,0,0-3.92-2.73,15.74,15.74,0,0,0-5.89-1,31.44,31.44,0,0,0-5.83.47,16,16,0,0,0-3.57,1l.61,3.88c.59-.23,1.52-.52,2.79-.89a23,23,0,0,1,5.8-.54,9.66,9.66,0,0,1,4.39.85,6.65,6.65,0,0,1,2.59,2.25,7.86,7.86,0,0,1,1.19,3.14,23.15,23.15,0,0,1,.28,3.57v2.18a5.53,5.53,0,0,0-1-.3c-.48-.12-1.05-.23-1.71-.34s-1.34-.21-2-.28-1.38-.1-2-.1a27.55,27.55,0,0,0-5.93.61,13.61,13.61,0,0,0-4.7,2A9.26,9.26,0,0,0,180.35,84a10.26,10.26,0,0,0-1.09,4.91,11.69,11.69,0,0,0,1,5.07A9.18,9.18,0,0,0,183,97.42a11.23,11.23,0,0,0,4.09,1.94,20.36,20.36,0,0,0,5.15.62c1.45,0,2.87-.06,4.26-.17s2.64-.27,3.78-.45,2.14-.35,3-.51a16.69,16.69,0,0,0,2-.44V76.19A18.65,18.65,0,0,0,204.54,71Zm-3.74,24.4a33,33,0,0,1-3.31.45c-1.29.11-2.81.17-4.53.17a17.26,17.26,0,0,1-3.78-.38,8.3,8.3,0,0,1-2.87-1.19,5.52,5.52,0,0,1-1.84-2.18,7.77,7.77,0,0,1-.64-3.34,6.15,6.15,0,0,1,.95-3.61,6.77,6.77,0,0,1,2.45-2.15,9.9,9.9,0,0,1,3.28-1,25.28,25.28,0,0,1,3.4-.24,21.17,21.17,0,0,1,4.5.37,13.38,13.38,0,0,1,2.39.72Z"/><path class="cls-3" d="M149.81,64Q149,67.39,148,71.25t-2.17,7.81c-.77,2.63-1.59,5.25-2.46,7.84s-1.75,5-2.62,7.29q-1.15-2.59-2.49-6.28c-.89-2.45-1.77-5.06-2.63-7.8s-1.68-5.52-2.43-8.31-1.38-5.4-1.89-7.8h-4.7q2.44,10.35,5.34,18.94a172.62,172.62,0,0,0,6.39,16.29h4.26q1-2.37,2.14-5.34c.75-2,1.53-4.09,2.33-6.34s1.57-4.61,2.31-7.09,1.46-5,2.14-7.61q1,3.89,2.15,7.6c.74,2.47,1.52,4.83,2.32,7.08s1.58,4.35,2.33,6.33,1.48,3.76,2.17,5.37h4.11Q168.06,91.54,171,83t5.37-19H172c-.51,2.41-1.13,5-1.88,7.81s-1.56,5.57-2.43,8.32-1.73,5.35-2.6,7.83-1.69,4.57-2.46,6.29q-1.37-3.41-2.7-7.29c-.89-2.59-1.73-5.22-2.52-7.87s-1.52-5.27-2.17-7.84-1.19-5-1.6-7.25Z"/><rect class="cls-3" x="97.93" y="51.64" width="8.59" height="47.23"/><path class="cls-3" d="M65.17,91.44a28.44,28.44,0,0,1-5-2l-2.52,7a19.58,19.58,0,0,0,2.18,1.06,28,28,0,0,0,3.24,1.12,33.21,33.21,0,0,0,4.29.92,35,35,0,0,0,5.35.38c5.82,0,10.23-1.17,13.26-3.51s4.53-5.65,4.53-9.92a15.08,15.08,0,0,0-1-5.69,11.65,11.65,0,0,0-2.76-4.09,17,17,0,0,0-4.43-3c-1.75-.84-3.73-1.67-6-2.48-1.27-.46-2.44-.93-3.51-1.43a15.92,15.92,0,0,1-2.79-1.64,6.56,6.56,0,0,1-1.84-2,5.23,5.23,0,0,1-.65-2.69,4.7,4.7,0,0,1,1.94-4A9,9,0,0,1,75,58a23.39,23.39,0,0,1,5.69.68,20.4,20.4,0,0,1,5.08,2l2.66-7A24.47,24.47,0,0,0,83,51.54a28.55,28.55,0,0,0-7.87-1q-7.64,0-12.07,3.64a12.35,12.35,0,0,0-4.43,10.06,11.83,11.83,0,0,0,1.06,5.24,12,12,0,0,0,2.79,3.75,16.06,16.06,0,0,0,4,2.63q2.3,1,4.74,1.94a45.21,45.21,0,0,1,4.36,1.67,17.4,17.4,0,0,1,3.24,1.84,7.41,7.41,0,0,1,2,2.21,5.71,5.71,0,0,1,.72,2.93,5.18,5.18,0,0,1-2.11,4.43q-2.12,1.58-6.75,1.57a24.6,24.6,0,0,1-7.56-1"/><path class="cls-3" d="M51.18,84.89q-2.41-6.39-4.71-12.13t-4.53-10.9q-2.25-5.18-4.63-10.22h-8.2q-2.38,5-4.63,10.22T20,72.76q-2.28,5.73-4.66,12.13t-5,14h8.93q1-2.73,1.95-5.49t1.94-5.62H43q1,2.86,2,5.59t2,5.52h9.27Q53.59,91.29,51.18,84.89Zm-25.9-4.08q2.17-6.07,4.19-11.25t3.58-8.79q1.5,3.48,3.54,8.72t4.23,11.32Z"/><path class="cls-3" d="M110.93,74.33h13.56v3.78H110.93Z"/><path class="cls-3" d="M270.55,63.14v.59h-2.22v6.34h-.68V63.73h-2.22v-.59Z"/><path class="cls-3" d="M274.75,69.07c-.07-.17-.16-.39-.29-.66l-.41-.89c-.16-.33-.31-.66-.48-1s-.31-.67-.46-1l-.39-.79c-.11-.23-.2-.39-.25-.48-.09.83-.16,1.74-.2,2.72s-.1,2-.14,3.07h-.67c.06-1.26.13-2.47.21-3.62s.17-2.26.28-3.31h.6c.2.33.41.72.64,1.16s.45.89.68,1.36.44.93.65,1.39.39.86.56,1.23c.16-.37.34-.78.55-1.23s.43-.92.65-1.39.45-.93.68-1.36.44-.83.64-1.16h.57c.11,1,.21,2.16.29,3.31s.14,2.36.2,3.62H278c0-1.07-.09-2.1-.14-3.07s-.11-1.89-.2-2.72c-.05.09-.14.25-.25.48l-.39.79c-.15.3-.3.62-.46,1s-.32.67-.47,1l-.42.89c-.12.27-.21.49-.28.66Z"/></svg>